<svg width="16" height="16" viewBox="0 0 16 16" fill="none" xmlns="http://www.w3.org/2000/svg">
<g clip-path="url(#clip0_13_2)">
<path d="M0.584381 0.584381V1.56794L0.828256 1.87585C0.727006 2.05429 0.647819 2.2341 0.593506 2.41085C0.590256 2.42147 0.587506 2.43222 0.584444 2.44288V3.33154C0.627944 3.44154 0.692131 3.54285 0.780537 3.63107C1.08966 3.9396 1.5581 3.95344 2.00263 3.81638C2.09494 3.78794 2.18807 3.75238 2.28144 3.71085L3.49688 5.24569C3.43663 5.37432 3.3861 5.50251 3.34657 5.62901C3.17938 6.16357 3.19719 6.71201 3.55313 7.06869C3.90913 7.42526 4.45701 7.44338 4.98938 7.27713C5.01991 7.26757 5.05063 7.25722 5.08132 7.24651L7.12513 9.82735C7.10857 9.8756 7.09276 9.92372 7.07857 9.97141C6.88638 10.6169 6.90701 11.2555 7.31763 11.6669C7.68622 12.0362 8.23969 12.0909 8.80866 11.9533L11.5504 15.4155H12.2954L12.223 15.3242C12.3269 15.014 12.4899 14.6788 12.7065 14.3413L13.6867 15.4155H15.4156V13.057L14.4449 12.2103C14.6163 11.9458 14.7596 11.6794 14.8719 11.4167L15.4156 11.8342V11.0979L15.0725 10.8343C15.2498 10.1404 15.1882 9.47519 14.7529 9.04088C14.2791 8.56801 13.5331 8.53822 12.777 8.77613C12.69 8.80347 12.6023 8.83488 12.5142 8.86938L9.71751 6.72138C9.74344 6.65004 9.76697 6.57919 9.78751 6.50888C9.96438 5.90263 9.94232 5.29872 9.55219 4.90779C9.16207 4.51685 8.55657 4.49435 7.95876 4.68122C7.76769 4.74091 7.57298 4.8226 7.37807 4.92454L5.51857 3.49632C5.60313 3.34351 5.67232 3.19101 5.72451 3.04141C5.88607 2.57797 5.89844 2.09154 5.58032 1.77276C5.26226 1.45394 4.77582 1.46579 4.31251 1.62701C4.07138 1.71091 3.82282 1.83869 3.57688 2.00488L1.72732 0.584381H0.584381ZM4.89188 2.10176C5.02541 2.10072 5.11719 2.13541 5.16694 2.18526C5.25538 2.27385 5.29607 2.49635 5.17304 2.84913C5.14141 2.93985 5.0996 3.03591 5.04835 3.13513L4.07116 2.3846C4.22288 2.29491 4.3696 2.2256 4.50448 2.17866C4.65879 2.12491 4.78797 2.10254 4.89185 2.10179L4.89188 2.10176ZM1.22801 2.38069L1.90347 3.23372C1.87885 3.24254 1.85441 3.25091 1.83047 3.25829C1.5036 3.35907 1.29126 3.31579 1.19304 3.21776C1.09479 3.11969 1.05163 2.90838 1.15179 2.58235C1.17166 2.51766 1.19729 2.45007 1.22804 2.38063L1.22801 2.38069ZM3.68801 2.82673L4.73123 3.62797C4.71476 3.64941 4.69729 3.67079 4.6801 3.69213L3.68804 2.82673H3.68801ZM3.15332 3.87129L3.85457 4.63988C3.83988 4.66044 3.82519 4.68104 3.81094 4.70169L3.15344 3.87126L3.15332 3.87129ZM5.19519 3.98447L6.84732 5.25338C6.77957 5.30204 6.71222 5.35329 6.64535 5.4066L5.12119 4.07701C5.14629 4.04626 5.17126 4.01544 5.19519 3.98451V3.98447ZM4.25969 5.08385L5.46679 6.40679C5.39685 6.45116 5.32716 6.49241 5.25835 6.52938L4.19435 5.18579C4.21519 5.15188 4.2371 5.11785 4.25966 5.08382L4.25969 5.08385ZM8.65876 5.15147C8.87213 5.15444 9.03469 5.2161 9.13876 5.32041C9.31641 5.49841 9.37113 5.8501 9.22701 6.34469L7.89938 5.32501C7.97901 5.29157 8.05719 5.26232 8.13294 5.23866C8.31304 5.18241 8.47451 5.15476 8.61544 5.15163C8.63013 5.15132 8.64451 5.15122 8.65876 5.15144V5.15147ZM7.33569 5.62835L8.99982 6.9066C8.93832 7.0281 8.86744 7.15191 8.78894 7.27647L7.09473 5.79857C7.17494 5.73801 7.25541 5.68091 7.33572 5.62838L7.33569 5.62835ZM3.91419 5.77273L4.69107 6.75382C4.34247 6.83772 4.09551 6.78538 3.96657 6.65626L3.96651 6.65619C3.82276 6.51213 3.77344 6.22072 3.90394 5.80338C3.90707 5.79332 3.91082 5.78294 3.91419 5.77273ZM5.86682 6.84522L7.64076 8.78935C7.54835 8.93279 7.46379 9.07654 7.38888 9.21982L5.62669 6.99451C5.70701 6.94857 5.78713 6.89869 5.86682 6.84522ZM9.47126 7.26866L11.9215 9.1506C11.7314 9.25666 11.5413 9.37804 11.3535 9.5136L9.23491 7.66547C9.32141 7.53351 9.4006 7.40094 9.47129 7.26866H9.47126ZM13.6638 9.21469C13.9576 9.21826 14.1886 9.30282 14.3404 9.45429C14.5418 9.65522 14.6251 9.99594 14.5579 10.4392L13.0724 9.29822C13.2654 9.24597 13.4435 9.21891 13.6041 9.21504C13.6243 9.21457 13.6441 9.21447 13.6638 9.21472V9.21469ZM8.05032 9.23822L9.62282 10.9617C9.41641 11.0921 9.21166 11.1975 9.01647 11.2751L7.7921 9.72894C7.86344 9.56947 7.95004 9.40479 8.05032 9.23822ZM12.433 9.54347L14.3913 11.0475C14.2956 11.2963 14.1636 11.5575 13.9987 11.8211L11.8079 9.91001C12.0177 9.76657 12.2279 9.64379 12.433 9.54347ZM7.57594 10.3967L8.39657 11.433C8.09563 11.4599 7.86807 11.3918 7.73094 11.2544C7.56776 11.0909 7.50238 10.7978 7.57594 10.3967V10.3967ZM10.0229 11.4002L12.2975 13.893C12.0943 14.1899 11.9264 14.4909 11.7985 14.7882L9.39269 11.7502C9.60244 11.656 9.81382 11.5386 10.0229 11.4002Z" fill="#FC7F7F"/>
</g>
<defs>
<clipPath id="clip0_13_2">
<rect width="16" height="16" fill="white"/>
</clipPath>
</defs>
</svg>
