<svg width="16" height="16" viewBox="0 0 16 16" fill="none" xmlns="http://www.w3.org/2000/svg">
<g clip-path="url(#clip0_1_25)">
<g clip-path="url(#clip1_1_25)">
<path d="M8.36839 8.21731L7.0497 9.53603C7.86416 10.0916 8.7813 10.479 9.74738 10.6756C10.7135 10.8722 11.7091 10.8741 12.6759 10.6811L12.3198 8.89581C10.9641 9.16642 9.55619 8.92466 8.36839 8.21731ZM4.75523 14.8661L4.94311 14.827C5.03072 14.8087 5.11387 14.7733 5.18781 14.7229C5.26175 14.6725 5.32503 14.608 5.37402 14.5331C5.42301 14.4581 5.45675 14.3743 5.47333 14.2864C5.4899 14.1984 5.48898 14.1081 5.47061 14.0205L5.17173 12.591C5.15633 12.5172 5.15954 12.4408 5.18107 12.3685C5.20261 12.2963 5.24178 12.2306 5.29507 12.1772L6.49836 10.974C6.60106 10.8713 6.65876 10.732 6.65876 10.5867C6.65876 10.4415 6.60106 10.3022 6.49836 10.1995L6.00611 9.70722L8.25436 7.45897L6.82436 6.02897L5.81576 7.03753C5.75568 6.97845 5.67469 6.94549 5.59042 6.94584C5.50616 6.9462 5.42545 6.97983 5.36586 7.03941C5.30628 7.099 5.27265 7.17971 5.27229 7.26398C5.27194 7.34824 5.3049 7.42923 5.36398 7.48931L5.53929 7.66463L2.41095 10.7929L2.41126 11.6082L3.36976 12.5437C3.85982 12.3616 3.85464 12.6244 3.97304 13.1902L4.25501 14.5382C4.26635 14.5926 4.28829 14.6442 4.31959 14.6902C4.35089 14.7361 4.39094 14.7754 4.43744 14.8058C4.48394 14.8363 4.53598 14.8573 4.59059 14.8676C4.64521 14.878 4.70132 14.8774 4.75573 14.8661H4.75523ZM4.66607 11.539C4.60638 11.4793 4.57285 11.3983 4.57285 11.3139C4.57285 11.2295 4.60638 11.1485 4.66607 11.0888L5.29726 10.4576C5.35696 10.3979 5.43791 10.3644 5.52232 10.3644C5.60674 10.3644 5.68769 10.3979 5.74739 10.4576L5.97382 10.6841C6.03352 10.7438 6.06705 10.8247 6.06705 10.9091C6.06705 10.9936 6.03352 11.0745 5.97382 11.1342L5.34182 11.7662C5.28213 11.8259 5.20117 11.8594 5.11676 11.8594C5.03235 11.8594 4.95139 11.8259 4.8917 11.7662L4.66551 11.5401L4.66607 11.539ZM7.67676 6.01722C7.66395 6.00417 7.65224 5.99008 7.64176 5.97509C7.59285 5.90123 7.5716 5.81246 7.58175 5.72445C7.59191 5.63644 7.63281 5.55485 7.69726 5.49406L10.2803 2.91106C10.4304 2.76094 10.6645 2.75163 10.8034 2.89056L11.5765 3.66369C11.7089 3.79603 11.7075 4.01672 11.5735 4.16825L9.14945 6.909C9.0157 7.06025 8.79857 7.08813 8.65117 6.98284C8.63619 6.97236 8.6221 6.96065 8.60904 6.94784L7.67786 6.01666L7.67676 6.01722ZM13.0968 1.125L13.589 1.61725L13.0642 1.96375L11.9063 3.12166L11.5921 2.80744L12.7503 1.64925L13.0968 1.125ZM11.128 1.88334C11.0963 1.85165 11.0785 1.80866 11.0785 1.76384C11.0785 1.71902 11.0963 1.67604 11.128 1.64434L11.2352 1.53716C11.2509 1.52146 11.2696 1.50901 11.2901 1.50051C11.3106 1.49202 11.3326 1.48764 11.3547 1.48764C11.3769 1.48764 11.3989 1.49202 11.4194 1.50051C11.4399 1.50901 11.4586 1.52146 11.4743 1.53716L11.8571 1.91997L11.5109 2.26622L11.128 1.88334Z" fill="#FC7F7F"/>
</g>
</g>
<defs>
<clipPath id="clip0_1_25">
<rect width="16" height="16" fill="white"/>
</clipPath>
<clipPath id="clip1_1_25">
<rect width="16" height="16" fill="white"/>
</clipPath>
</defs>
</svg>
