<svg width="16" height="16" viewBox="0 0 16 16" fill="none" xmlns="http://www.w3.org/2000/svg">
<g clip-path="url(#clip0_12_6)">
<g clip-path="url(#clip1_12_6)">
<path fill-rule="evenodd" clip-rule="evenodd" d="M5.6199 7.39462L7.62238 6.32278L6.59526 4.91625L5.51658 5.70393C5.46951 5.64059 5.39933 5.59842 5.32131 5.58659C5.24329 5.57476 5.16376 5.59423 5.10004 5.64077C5.03631 5.6873 4.99355 5.75713 4.98107 5.83505C4.96859 5.91296 4.9874 5.99265 5.0334 6.05677L5.17032 6.24426L1.82457 8.68743L1.70726 9.44178L2.19137 10.0881C2.26309 10.0127 2.34487 9.95414 2.42822 9.90953C2.56671 9.8354 2.70577 9.81344 2.79061 9.80436C2.8817 9.79461 2.97145 9.79436 3.03343 9.7946L3.08398 9.79488L3.11493 9.79506L3.10913 9.25049C3.13409 9.01767 3.29581 8.52148 3.74303 8.39923C3.53172 7.83565 3.88672 7.28539 4.31654 7.05529L4.43143 6.99379L5.51864 6.92612L5.6199 7.39462ZM8.13452 6.04865L9.56325 5.28392L11.2578 3.87969C11.3315 3.81862 11.3764 3.73632 11.3895 3.65158L11.2355 3.36402L11.28 3.34021L10.7296 2.58643C10.6211 2.43784 10.4031 2.41268 10.2426 2.52993L7.48007 4.54724C7.41168 4.59419 7.36206 4.66378 7.33996 4.74375C7.31787 4.82371 7.32473 4.90891 7.35933 4.98431C7.36687 4.99969 7.37567 5.01441 7.38564 5.02834L7.38673 5.02797L8.11399 6.02387C8.1204 6.03249 8.12726 6.04076 8.13452 6.04865ZM13.1062 1.28367L13.4907 1.81013L12.9551 2.05502L11.7167 2.95934L11.4713 2.62329L12.71 1.71875L13.1062 1.28367ZM11.1752 1.70133C11.1505 1.66743 11.1402 1.62509 11.1467 1.58362C11.1531 1.54215 11.1758 1.50495 11.2097 1.48019L11.3244 1.39648C11.3411 1.38422 11.3602 1.37539 11.3804 1.37049C11.4006 1.36559 11.4215 1.36471 11.4421 1.36791C11.4626 1.37111 11.4823 1.37833 11.5001 1.38915C11.5178 1.39997 11.5333 1.41418 11.5455 1.43096L11.8445 1.84039L11.4742 2.11081L11.1752 1.70133Z" fill="#FC7F7F"/>
<path fill-rule="evenodd" clip-rule="evenodd" d="M14.2665 4.74445L13.9315 4.9237L13.7321 4.55129L14.0671 4.37203L14.2665 4.74445ZM12.131 3.55607L12.115 3.56464L12.1151 3.56489L12.3168 3.94151L12.6504 3.76297L12.6187 3.7037C12.5736 3.61946 12.4969 3.55659 12.4054 3.5289C12.314 3.50121 12.2152 3.51099 12.131 3.55607ZM5.11102 7.51078L4.66653 7.53842L4.66642 7.53881C4.40335 7.67961 4.28154 7.9658 4.38733 8.18484L5.1666 7.7678L5.11102 7.51078ZM12.4976 11.568L12.7956 10.864C12.1136 10.5747 11.4539 10.2367 10.8215 9.85288L9.96655 10.2176C10.7679 10.7416 11.6149 11.1936 12.4976 11.568ZM9.79185 7.78011L13.4534 5.26796C13.4725 5.25558 13.4876 5.23801 13.4969 5.21733C13.5063 5.19664 13.5096 5.17371 13.5063 5.15123L13.5119 5.14827L13.4957 5.11812L12.9683 4.13303L8.95573 6.28031L9.76486 7.79163L9.79185 7.78011ZM9.3248 7.97939L8.53553 6.50517L3.90157 8.98499C3.86274 9.0058 3.83036 9.03686 3.80795 9.07478C3.78554 9.11271 3.77396 9.15605 3.77447 9.2001L3.783 9.99823L4.17454 10.7416C4.2374 10.859 4.32134 10.8795 4.53811 10.7919L4.45192 10.6614L4.69658 10.3036L4.70355 10.2943L4.70416 10.2935L4.70751 10.2889C4.71047 10.2849 4.71555 10.278 4.72162 10.2701C4.73397 10.254 4.75254 10.2308 4.7768 10.2051L4.7777 10.2041L4.78164 10.1998L4.7976 10.1826C4.81003 10.1694 4.82869 10.1501 4.85223 10.1287C4.88765 10.0958 4.92508 10.065 4.96428 10.0366L5.44861 9.81488L5.38263 9.66024L5.58619 9.57338L5.53289 9.44847L5.16751 9.644C5.11186 9.67378 5.04665 9.68024 4.98623 9.66195C4.9258 9.64366 4.87512 9.60212 4.84533 9.54647C4.81554 9.49082 4.80907 9.42562 4.82736 9.36521C4.84565 9.3048 4.88719 9.25413 4.94284 9.22434L8.06416 7.55404C8.09173 7.53915 8.12196 7.52986 8.15313 7.52668C8.1843 7.52351 8.21579 7.52652 8.24579 7.53554C8.2758 7.54456 8.30372 7.55942 8.32797 7.57925C8.35222 7.59909 8.37232 7.62352 8.38711 7.65114L8.38634 7.65157C8.40109 7.67912 8.41028 7.70931 8.41336 7.74041C8.41644 7.77151 8.41337 7.80292 8.40432 7.83283C8.39526 7.86274 8.3804 7.89058 8.36059 7.91474C8.34077 7.93891 8.31639 7.95894 8.28883 7.97369L5.62441 9.3995L8.95615 7.97795L9.01344 8.11223L9.3248 7.97939ZM2.72865 10.9421C2.72865 10.9421 3.4819 12.5242 3.68356 12.9734L3.6841 12.9738C3.79267 13.2157 4.04851 13.0777 3.97774 12.8845C3.79024 12.3741 3.67144 11.7311 3.59887 11.2048C3.57458 11.0397 3.70331 10.9984 3.79579 11.035C3.78051 11.0128 3.7664 10.9898 3.75354 10.9662L3.75199 10.9633L3.41693 10.3267C3.34929 10.3507 3.24545 10.35 3.13743 10.3492C3.00362 10.3483 2.86341 10.3473 2.77765 10.3932C2.5594 10.51 2.60859 10.7178 2.72865 10.9421Z" fill="#FC7F7F"/>
<path d="M5.89323 10.3223C5.84869 10.3225 5.8042 10.3249 5.75988 10.3293C5.72724 10.3329 5.69398 10.3371 5.66025 10.3435C5.62626 10.3498 5.59255 10.3576 5.5592 10.3667C5.52607 10.3761 5.49347 10.3872 5.46154 10.4001L5.41529 10.4198C5.40007 10.4263 5.38579 10.4345 5.37173 10.4421C5.34493 10.4568 5.3191 10.4732 5.29441 10.4912C5.27256 10.507 5.25177 10.5242 5.23217 10.5427C5.21359 10.5592 5.19883 10.5765 5.18534 10.5908C5.17184 10.6051 5.16202 10.6195 5.15364 10.6307L5.12892 10.6668L5.16447 10.642C5.17605 10.6345 5.19051 10.6262 5.20649 10.6166C5.22248 10.6071 5.24174 10.5982 5.26414 10.5895C5.28644 10.5801 5.30934 10.5722 5.33269 10.5658C5.35828 10.5587 5.38431 10.5532 5.41061 10.5494C5.4241 10.5476 5.43775 10.5454 5.45195 10.5447C5.46616 10.5439 5.47993 10.5427 5.49438 10.5425C5.52301 10.5418 5.55165 10.5427 5.58018 10.5451C5.6088 10.5479 5.63731 10.5514 5.66495 10.5567C5.69257 10.562 5.71541 10.5668 5.73879 10.573C5.77211 10.4795 5.82473 10.3941 5.89323 10.3223ZM11.4953 8.79305C11.5107 8.82928 11.5112 8.87018 11.4965 8.90673C11.4818 8.94328 11.4532 8.9725 11.417 8.98797L9.49504 9.80799L9.3618 9.4957L11.4203 8.61739L11.4953 8.79305ZM5.74773 11.5012C5.20893 12.3196 5.21403 14.1906 5.73945 15.2171L7.5546 14.4426C7.5546 14.4426 6.66371 13.2684 6.93182 12.6423C6.93603 12.6327 6.94076 12.6233 6.94555 12.6134C6.99441 12.1683 6.85624 11.8336 6.53874 11.641C6.2562 11.4693 5.92135 11.4599 5.74773 11.5012ZM6.58825 14.1363C6.60802 14.1826 6.6136 14.2337 6.60431 14.2832C6.59501 14.3327 6.57124 14.3783 6.53601 14.4143C6.50077 14.4503 6.45566 14.4751 6.40637 14.4854C6.35708 14.4958 6.30583 14.4913 6.2591 14.4725C6.21236 14.4537 6.17225 14.4215 6.14382 14.3799C6.1154 14.3383 6.09994 14.2893 6.09941 14.2389C6.09888 14.1885 6.11329 14.1392 6.14082 14.097C6.16836 14.0548 6.20778 14.0218 6.25411 14.002C6.31622 13.9755 6.38633 13.9747 6.44899 13.9999C6.51166 14.0251 6.56174 14.0741 6.58825 14.1363ZM12.2251 7.14608C12.2318 7.14023 12.2398 7.13606 12.2484 7.13389C12.257 7.13173 12.266 7.13164 12.2747 7.13364C12.2834 7.13564 12.2914 7.13966 12.2982 7.14538C12.3051 7.1511 12.3104 7.15836 12.3139 7.16655L12.5667 7.75914L9.22915 9.18317L9.02987 8.7161L11.7579 7.55215L12.2251 7.14608ZM6.13602 11.1514L6.13309 11.1527C6.33861 11.1776 6.53669 11.2451 6.71476 11.3507C7.13537 11.6054 7.26784 11.9949 7.29005 12.3372C7.39093 12.299 7.48879 12.2893 7.55 12.3225C7.69833 12.4041 7.86326 12.4508 8.03232 12.4592C8.20138 12.4676 8.37014 12.4375 8.52583 12.371C8.95386 12.1884 9.24357 11.746 9.09279 11.2254C9.16465 11.1767 9.22171 11.1091 9.25769 11.03C9.29368 10.951 9.3072 10.8636 9.29679 10.7774L9.20118 9.98388L8.65988 8.71523L6.26661 9.73637L6.32348 9.86968L6.11992 9.95653L6.32303 10.4326C5.81598 10.6501 6.13525 11.1518 6.13525 11.1518L6.13602 11.1514ZM8.2342 9.41758C8.25186 9.45899 8.25235 9.50572 8.23557 9.54749C8.21878 9.58926 8.18609 9.62265 8.14469 9.64033L7.12117 10.077C7.07986 10.0941 7.03348 10.0942 6.99209 10.0773C6.9507 10.0604 6.91764 10.0279 6.9001 9.98679C6.88255 9.94567 6.88194 9.89929 6.89838 9.85772C6.91483 9.81614 6.947 9.78274 6.98793 9.76475L8.01144 9.32804C8.05286 9.31038 8.09959 9.30989 8.14136 9.32668C8.18314 9.34347 8.21653 9.37617 8.2342 9.41758ZM8.42574 9.86648C8.4434 9.90789 8.44389 9.95462 8.4271 9.99639C8.41032 10.0382 8.37763 10.0716 8.33622 10.0892L7.31271 10.5259C7.2714 10.543 7.22501 10.5431 7.18362 10.5262C7.14223 10.5094 7.10918 10.4768 7.09163 10.4357C7.07409 10.3946 7.07347 10.3482 7.08991 10.3066C7.10636 10.265 7.13854 10.2316 7.17947 10.2137L8.20298 9.77695C8.24439 9.75929 8.29112 9.7588 8.3329 9.77559C8.37467 9.79238 8.40807 9.82507 8.42574 9.86648ZM8.5236 10.5284L7.50008 10.9651C7.47953 10.9741 7.45739 10.979 7.43495 10.9794C7.4125 10.9798 7.39019 10.9758 7.36932 10.9675C7.34844 10.9593 7.32941 10.947 7.31333 10.9313C7.29724 10.9156 7.28443 10.897 7.27562 10.8763C7.26681 10.8557 7.26218 10.8335 7.262 10.811C7.26183 10.7886 7.2661 10.7663 7.27459 10.7455C7.28307 10.7247 7.29559 10.7058 7.31143 10.6899C7.32726 10.674 7.3461 10.6614 7.36684 10.6528L8.39036 10.2161C8.43166 10.199 8.47805 10.1989 8.51944 10.2158C8.56083 10.2327 8.59389 10.2652 8.61143 10.3064C8.62897 10.3475 8.62959 10.3939 8.61315 10.4354C8.5967 10.477 8.56452 10.5104 8.5236 10.5284ZM7.55577 11.8872C7.44477 11.6271 7.59149 11.5384 7.82081 11.4486C7.83577 11.4702 7.85165 11.4922 7.86894 11.5144C7.88934 11.54 7.9105 11.5659 7.93399 11.5911C7.95746 11.6164 7.98162 11.64 8.00745 11.6643C8.03303 11.6874 8.05983 11.7091 8.08774 11.7293C8.10129 11.7394 8.11519 11.7487 8.12937 11.7576C8.14357 11.7666 8.15744 11.7747 8.17142 11.7826C8.19814 11.7975 8.2258 11.8107 8.25422 11.822C8.27924 11.8322 8.30489 11.8406 8.33102 11.8474C8.35475 11.8543 8.37738 11.8576 8.39653 11.8614C8.41569 11.8653 8.43333 11.866 8.44714 11.8671L8.49106 11.8688L8.4511 11.852C8.43872 11.8462 8.42388 11.8385 8.40729 11.8298C8.38876 11.8201 8.37112 11.8088 8.35455 11.7961C8.33478 11.7823 8.31595 11.7672 8.29816 11.7509C8.27848 11.733 8.25998 11.7138 8.24278 11.6936C8.23391 11.683 8.22502 11.6725 8.21689 11.661C8.20874 11.6495 8.20009 11.6384 8.19203 11.6254C8.17631 11.6016 8.16187 11.577 8.14878 11.5516C8.13585 11.5264 8.12414 11.5006 8.1137 11.4743C8.10364 11.4486 8.09414 11.422 8.08598 11.3964C8.0813 11.3811 8.07706 11.3663 8.07311 11.3516L8.09457 11.3424C8.45488 11.1887 8.70914 10.9757 8.86062 11.3307C8.93439 11.5038 8.9364 11.699 8.8662 11.8736C8.79601 12.0481 8.65935 12.1876 8.48631 12.2614C8.31326 12.3351 8.118 12.3371 7.94347 12.267C7.76894 12.1968 7.62945 12.0601 7.55568 11.8871L7.55577 11.8872Z" fill="#FC7F7F"/>
</g>
</g>
<defs>
<clipPath id="clip0_12_6">
<rect width="16" height="16" fill="white"/>
</clipPath>
<clipPath id="clip1_12_6">
<rect width="16" height="16" fill="white"/>
</clipPath>
</defs>
</svg>
