<svg width="16" height="16" viewBox="0 0 16 16" fill="none" xmlns="http://www.w3.org/2000/svg">
<g clip-path="url(#clip0_3_109)">
<g clip-path="url(#clip1_3_109)">
<path d="M1.04327 0.57756L6.66258 6.19694C7.16233 5.80631 7.68927 5.53031 8.19408 5.38806C8.38502 5.33425 8.57564 5.29972 8.76102 5.28706L4.05143 0.57756H1.0433H1.04327ZM0.565613 2.95337V3.65381L5.06352 8.15172C5.13489 8.00006 5.21658 7.84815 5.30946 7.69722L0.565613 2.95344V2.95337ZM0.565613 4.47975V5.15844L4.73789 9.33075C4.74905 9.14169 4.78333 8.94694 4.83764 8.75178L0.565613 4.47975ZM8.93311 5.86437C8.76017 5.8625 8.56561 5.89012 8.35249 5.95019C7.78414 6.11034 7.1223 6.50159 6.53811 7.08575C5.95396 7.6699 5.56268 8.33181 5.40249 8.90012C5.24236 9.46847 5.31296 9.90494 5.55821 10.1502C5.80346 10.3955 6.23996 10.4661 6.80827 10.3059C6.89546 10.2813 6.98505 10.2507 7.07608 10.2154C6.93714 11.3187 7.16464 12.7577 7.77202 14.5084C7.99208 11.1628 9.02858 12.0979 10.4078 15.098C9.60727 11.7969 12.0001 12.8382 15.1495 15.3541C12.5664 12.3527 11.8723 10.2677 15.4784 11.146C11.9415 9.86634 11.3887 8.58734 14.4442 8.49072C12.4597 7.76031 10.8605 7.48553 9.66286 7.63619C9.70036 7.54087 9.73255 7.44712 9.7583 7.35587C9.91842 6.78756 9.84789 6.35103 9.60268 6.10578C9.44936 5.9525 9.22133 5.86744 8.93314 5.86431L8.93311 5.86437ZM8.44468 6.51837C8.66364 6.521 8.85211 6.58656 8.98711 6.72156C9.21343 6.94787 9.24421 7.32453 9.11086 7.74344C8.10324 8.01572 7.45633 8.66328 7.18421 9.66087C6.77064 9.78931 6.39952 9.7569 6.17564 9.53306C5.74371 9.10106 6.02289 8.1215 6.79927 7.34515C7.33302 6.8114 7.9628 6.51259 8.44468 6.51837Z" fill="#FC7F7F"/>
</g>
</g>
<defs>
<clipPath id="clip0_3_109">
<rect width="16" height="16" fill="white"/>
</clipPath>
<clipPath id="clip1_3_109">
<rect width="16" height="16" fill="white"/>
</clipPath>
</defs>
</svg>
