<svg width="16" height="16" viewBox="0 0 16 16" fill="none" xmlns="http://www.w3.org/2000/svg">
<path d="M6.34369 8.13923V10.2858H6.6134H6.89002L6.98684 9.99078C7.03525 9.82849 7.09058 9.69571 7.09749 9.69571C7.10441 9.69571 7.21506 9.82849 7.33262 9.99078L7.55392 10.2858L10.1335 10.2785L12.7199 10.2711V9.90226V9.53343L10.3893 9.52605L8.05877 9.51867V9.14984V8.781L10.3893 8.77363L12.7199 8.76625L12.7268 8.58921L12.7337 8.41955H10.3962H8.05185V8.19825V7.97695L10.3824 7.96957L12.713 7.96219L12.7199 6.9811L12.7268 6H10.1335H7.55392L7.32571 6.26556C7.20123 6.40572 7.09749 6.52374 7.09058 6.50899C7.08366 6.50161 7.04217 6.39096 6.99376 6.25818L6.90385 6.02213L6.62723 6.00738L6.3506 6V8.13923H6.34369Z" fill="#FC7F7F"/>
<path d="M13.1971 6.93685C13.2109 7.32043 13.2178 8.14662 13.2178 8.77364V9.9244L13.3631 9.90227C14.3243 9.73261 15.1335 9.24575 15.4032 8.68512C15.4931 8.48595 15.5 8.44169 15.5 8.06548C15.5 7.68927 15.4931 7.64501 15.3893 7.40895C15.1265 6.81882 14.5249 6.44261 13.6259 6.30245C13.1141 6.22131 13.1694 6.14017 13.1971 6.93685Z" fill="#FC7F7F"/>
<path d="M0.5 6.70815V6.83356H2.45712H5.72822V6.70815V6.58275H2.45712H0.5V6.70815Z" fill="#FC7F7F"/>
<path d="M1.66876 7.63024V7.75564H2.51938H4.47651V7.63024V7.50484H2.51938H1.66876V7.63024Z" fill="#FC7F7F"/>
<path d="M2.56085 8.34579V8.45644H3.54979H5.57607V8.34579V8.23514H3.5567H2.56085V8.34579Z" fill="#FC7F7F"/>
<path d="M3.86792 9.09821V9.18673H4.31052H5.23721V9.09821V9.00969H4.31052H3.86792V9.09821Z" fill="#FC7F7F"/>
<path d="M4.00623 9.82848V9.95389H4.62172H5.7213V9.82848V9.70308H4.62172H4.00623V9.82848Z" fill="#FC7F7F"/>
</svg>
