<svg width="16" height="16" viewBox="0 0 16 16" fill="none" xmlns="http://www.w3.org/2000/svg">
<g clip-path="url(#clip0_8_26)">
<path d="M14.4181 7.45975C14.5142 8.13206 14.4181 11.3976 14.4181 11.3976H14.7063C14.7063 11.3976 14.8046 8.69903 14.7063 7.3637C14.3861 6.88347 13.7455 5.82698 13.7455 5.4428V4.3863V3.61794C13.7455 3.5411 13.6174 3.45786 13.5534 3.42585C12.1763 2.88159 9.36448 1.77387 9.1339 1.69703C8.84567 1.60099 8.65352 1.60099 8.17314 1.69703C7.69276 1.79308 5.86731 2.4654 5.48301 2.65749C5.28447 2.75672 5.06029 2.98413 4.86346 3.23376L9.32605 5.3948C9.46838 5.18349 9.68098 4.99352 9.99858 4.86653C10.9593 4.48234 12.7848 3.81003 13.073 3.71398C13.3612 3.61794 13.4573 3.71398 13.4573 3.90607V5.4428C13.4573 6.13432 14.0978 7.07556 14.4181 7.45975Z" fill="#FC7F7F"/>
<path d="M9.03782 9.38065C9.03782 9.38065 9.5182 9.47669 9.61428 9.95692C9.6463 10.7893 9.69114 12.7422 9.61428 13.8948L8.84567 14.375L6.89697 13.2881C7.26346 12.9766 7.50791 12.4167 7.50791 11.7778C7.50791 10.7998 6.93521 10.0069 6.22874 10.0069C5.55679 10.0069 5.00585 10.7242 4.95362 11.6358C4.35589 11.2964 3.29874 10.6883 2.6968 10.3411C2.5687 10.2771 2.3125 10.053 2.3125 9.66879V8.4202C2.3125 8.13206 2.98503 6.69138 3.46541 6.59534L9.03782 9.38065Z" fill="#FC7F7F"/>
<path d="M4.42617 3.90607C4.27245 4.21342 4.04187 5.4428 3.94579 6.01907C3.84768 6.0583 3.68946 6.08551 3.58162 6.21116L9.05552 8.90522L9.83684 9.28875L13.6849 7.70788C13.3231 7.26813 12.7369 6.33909 12.7369 5.55147V4.13376L12.5593 4.21252V5.63024C12.5593 5.96497 12.9935 6.75259 12.9935 7.00857V7.70788L10.335 8.79043C9.94692 8.46882 9.21483 7.96278 9.18325 7.74225L9.10685 7.22675C9.06677 6.94361 9.03782 6.70579 9.03782 6.59534C9.03782 6.47805 9.03782 6.30704 9.06516 6.11511L4.42617 3.90607Z" fill="#FC7F7F"/>
<path d="M13.7214 8.06508C13.7214 7.98851 9.625 9.64224 9.625 9.64224C9.69962 9.68318 9.7591 9.81622 9.7818 10.0806C9.82467 10.5801 9.7818 11.5484 9.7818 13.25L10.4678 13.112C10.4678 12.8398 10.6345 12.6191 10.8402 12.6191C10.962 12.6191 11.0702 12.6966 11.1381 12.8163L13.349 11.8108C13.349 11.5386 13.5157 11.318 13.7214 11.318C13.8052 11.318 13.8826 11.3547 13.9448 11.4165L14.0938 11.1839V10.0806C14.0938 9.69778 13.7214 8.16078 13.7214 8.06508Z" fill="#FC7F7F"/>
<ellipse cx="6.23438" cy="11.75" rx="0.953125" ry="1.34375" fill="#FC7F7F"/>
<path d="M1.28321 7.57081C1.28321 8.53023 1.36247 8.83562 1.4021 8.86838L2.03614 9.28125V8.26591C2.03614 8.04096 2.45238 7.11006 2.86512 6.66797L1.29304 5.8667C1.27473 6.00821 1.28321 6.14212 1.28321 6.25357V7.57081Z" fill="#FC7F7F"/>
<path d="M3.68056 5.8667C3.30422 5.95867 3.20159 6.14994 3.20159 6.43784L1.4021 5.52774C1.47279 5.40306 1.58409 5.28137 1.75875 5.17226L3.96875 4.40625C3.85442 4.89176 3.74103 5.50674 3.68056 5.8667Z" fill="#FC7F7F"/>
</g>
<defs>
<clipPath id="clip0_8_26">
<rect width="16" height="16" fill="white"/>
</clipPath>
</defs>
</svg>
