<svg width="16" height="16" viewBox="0 0 16 16" fill="none" xmlns="http://www.w3.org/2000/svg">
<g clip-path="url(#clip0_12_6)">
<path fill-rule="evenodd" clip-rule="evenodd" d="M8.67319 7.96213L8.26511 8.87315C8.18407 8.8636 8.10347 8.85813 8.02333 8.85763C7.76022 8.85599 7.50451 8.90261 7.26538 8.98897L6.68703 8.17901L5.59178 8.9789L6.19035 9.81612C6.011 10.0751 5.88439 10.3758 5.82966 10.7054L4.767 10.822L4.89996 12.1715L6.03098 12.0471C6.15739 12.3008 6.33142 12.529 6.54326 12.718L6.06053 13.7969L7.28874 14.3465L7.7738 13.2629C8.06375 13.2938 8.34792 13.2661 8.61334 13.1882L9.31293 14.1467L10.4089 13.3485L9.74205 12.4132C9.91816 12.1838 10.0512 11.9174 10.1276 11.6242L11.233 11.5037L11.1001 10.1542L10.0491 10.2576C9.92675 9.94375 9.73451 9.66179 9.48787 9.43441L9.9014 8.51169L8.67319 7.96213ZM9.09686 11.0863C9.06114 10.5013 8.57259 10.0519 7.993 10.0579C7.97435 10.0581 7.95519 10.0591 7.93629 10.0602C7.33239 10.0971 6.87337 10.6162 6.91019 11.22C6.94703 11.8238 7.4661 12.283 8.07002 12.2461C8.67388 12.2092 9.13368 11.6901 9.09686 11.0863Z" fill="#FC7F7F"/>
<path fill-rule="evenodd" clip-rule="evenodd" d="M10.1648 8.90205L9.96342 9.35138C10.0907 9.49861 10.2012 9.65978 10.2929 9.83171L11.459 9.71698L11.5673 10.8166C11.9388 10.7994 12.3094 10.7542 12.6759 10.6811L12.3198 8.89581C11.6026 9.03896 10.8709 9.03873 10.1648 8.90205ZM7.32675 8.38657L6.77762 7.61754L5.03609 8.88941L5.71105 9.83348C5.62544 9.99197 5.55546 10.161 5.50365 10.3388L4.33014 10.4675L4.54155 12.6133L5.16454 12.5448C5.16614 12.5603 5.16853 12.5757 5.17173 12.591L5.47061 14.0205C5.48898 14.1081 5.4899 14.1984 5.47333 14.2864C5.45675 14.3743 5.42301 14.4581 5.37402 14.5331C5.32503 14.608 5.26175 14.6725 5.18781 14.7229C5.11387 14.7733 5.03072 14.8087 4.94311 14.827L4.75523 14.8661C4.70082 14.8774 4.64521 14.878 4.59059 14.8676C4.53598 14.8573 4.48394 14.8363 4.43744 14.8058C4.39094 14.7754 4.35089 14.7361 4.31959 14.6902C4.28829 14.6442 4.26635 14.5926 4.25501 14.5382L3.97304 13.1902C3.96142 13.1346 3.95098 13.082 3.94115 13.0324C3.85088 12.5771 3.81171 12.3794 3.36976 12.5437L2.41126 11.6082L2.41095 10.7929L5.53929 7.66463L5.36398 7.48931C5.3049 7.42923 5.27194 7.34824 5.27229 7.26398C5.27265 7.17971 5.30628 7.099 5.36586 7.03941C5.42545 6.97983 5.50616 6.9462 5.59042 6.94584C5.67469 6.94549 5.75568 6.97845 5.81576 7.03753L6.82436 6.02897L8.25436 7.45897L7.32675 8.38657ZM7.64176 5.97509C7.65224 5.99008 7.66395 6.00417 7.67676 6.01722L7.67786 6.01666L8.60904 6.94784C8.6221 6.96065 8.63619 6.97236 8.65117 6.98284C8.79857 7.08813 9.0157 7.06025 9.14945 6.909L11.5735 4.16825C11.7075 4.01672 11.7089 3.79603 11.5765 3.66369L10.8034 2.89056C10.6645 2.75163 10.4304 2.76094 10.2803 2.91106L7.69726 5.49406C7.63281 5.55485 7.59191 5.63644 7.58175 5.72445C7.5716 5.81246 7.59285 5.90123 7.64176 5.97509ZM13.589 1.61725L13.0968 1.125L12.7503 1.64925L11.5921 2.80744L11.9063 3.12166L13.0642 1.96375L13.589 1.61725ZM11.0785 1.76384C11.0785 1.80866 11.0963 1.85165 11.128 1.88334L11.5109 2.26622L11.8571 1.91997L11.4743 1.53716C11.4586 1.52146 11.4399 1.50901 11.4194 1.50051C11.3989 1.49202 11.3769 1.48764 11.3547 1.48764C11.3326 1.48764 11.3106 1.49202 11.2901 1.50051C11.2696 1.50901 11.2509 1.52146 11.2352 1.53716L11.128 1.64434C11.0963 1.67604 11.0785 1.71902 11.0785 1.76384Z" fill="#FC7F7F"/>
</g>
<defs>
<clipPath id="clip0_12_6">
<rect width="16" height="16" fill="white"/>
</clipPath>
</defs>
</svg>
