<svg width="16" height="16" viewBox="0 0 16 16" fill="none" xmlns="http://www.w3.org/2000/svg">
<path fill-rule="evenodd" clip-rule="evenodd" d="M4.13793 6H1.65517V5.66667C0.331034 5.66667 0 5.88889 0 6V8.33333H1.10345V7.33333L1.37931 6.66667H4L3.86207 7.33333H4.68966V7.66667L3.86207 9.33333V10.3333H5.51724L6.06897 8.66667H8L6.89655 11.6667L8.55172 12L9.65517 9H9.93103L10.4828 7.33333H12.1379V8.33333C12.1379 8.86667 12.9655 9.22222 13.2414 9.33333V7.33333H14.3448V7.66667H14.8966V7H16V6H15.1724V4.66667H14.8966V4H13.7931V4.66667H12.9655V5H4.68966C4.24828 5 4.13793 5.77778 4.13793 6ZM6.62066 7.33333H8.27584L7.99997 8.33333H6.06894L6.62066 7.33333Z" fill="#FC9C9C"/>
</svg>
